<?xml version="1.0" standalone="no"?>
<!DOCTYPE svg PUBLIC "-//W3C//DTD SVG 20010904//EN"
 "http://www.w3.org/TR/2001/REC-SVG-20010904/DTD/svg10.dtd">
<svg version="1.0" xmlns="http://www.w3.org/2000/svg"
 width="512.000000pt" height="512.000000pt" viewBox="0 0 512.000000 512.000000"
 preserveAspectRatio="xMidYMid meet">

<g transform="translate(0.000000,512.000000) scale(0.100000,-0.100000)"
fill="#000000" stroke="none">
<path d="M1230 4774 c-259 -33 -485 -123 -681 -270 -294 -222 -483 -554 -534
-941 -48 -360 25 -733 224 -1138 332 -675 1000 -1333 1951 -1922 284 -176 338
-198 430 -173 119 32 761 457 1085 718 276 222 625 560 625 605 0 38 -36 77
-72 77 -27 0 -55 -23 -197 -163 -232 -228 -402 -372 -670 -571 -283 -210 -781
-526 -829 -526 -25 0 -82 26 -82 38 0 4 127 131 283 282 1078 1047 1109 1079
1156 1206 86 228 5 474 -187 567 -23 12 -41 24 -40 27 2 3 20 39 41 80 53 106
75 219 59 314 -32 189 -164 323 -352 356 -35 6 -83 9 -107 5 l-42 -6 5 48 c24
199 -129 405 -335 453 -108 25 -265 -4 -372 -70 l-48 -29 -32 59 c-69 130
-212 211 -373 210 -70 0 -178 -28 -256 -66 -71 -35 -101 -63 -513 -473 -241
-240 -440 -446 -443 -458 -15 -58 39 -113 91 -93 11 4 207 195 435 425 228
229 435 429 459 445 116 77 254 95 355 46 87 -43 129 -105 147 -221 12 -73 30
-95 79 -95 29 0 44 8 75 41 111 112 281 166 398 125 99 -36 159 -108 179 -214
10 -51 8 -71 -7 -129 -29 -112 -30 -138 -5 -163 25 -25 43 -24 167 6 67 16 76
16 139 1 243 -60 285 -340 84 -560 -64 -70 -73 -98 -43 -136 13 -16 36 -24 79
-30 217 -31 312 -236 209 -448 -48 -97 -240 -299 -610 -643 -115 -107 -344
-325 -508 -485 -164 -159 -302 -291 -306 -293 -4 -1 -77 42 -163 97 -626 399
-1130 835 -1472 1274 -80 103 -232 328 -241 358 -6 18 24 53 189 218 217 217
230 238 183 285 -52 51 -65 44 -267 -159 -102 -102 -188 -185 -191 -185 -11 0
-95 198 -133 313 -140 424 -124 831 46 1171 106 213 265 382 473 504 196 115
437 171 675 158 357 -20 682 -171 992 -464 128 -121 128 -121 255 -1 321 302
643 450 1013 466 605 25 1117 -383 1240 -989 100 -486 -63 -1042 -465 -1593
-82 -111 -95 -135 -93 -164 4 -46 46 -79 85 -65 93 32 423 574 526 862 178
498 166 966 -34 1365 -123 245 -351 469 -608 597 -539 269 -1224 138 -1724
-330 l-67 -62 -64 60 c-139 130 -289 231 -466 316 -220 104 -385 145 -615 150
-82 3 -166 2 -185 0z"/>
<path d="M2002 3685 c-192 -54 -329 -262 -282 -430 17 -60 79 -129 135 -150
63 -24 163 -17 237 17 80 37 151 107 191 187 28 58 32 75 32 146 0 89 -13 121
-67 175 -60 60 -153 81 -246 55z m139 -164 c21 -22 29 -39 29 -65 0 -85 -80
-183 -170 -210 -58 -17 -95 -11 -120 22 -55 69 11 206 125 258 68 32 100 31
136 -5z"/>
<path d="M2617 3536 c-145 -60 -241 -195 -241 -341 -1 -202 188 -298 391 -199
119 57 203 184 211 314 3 68 1 80 -25 130 -22 43 -41 62 -83 88 -48 28 -63 32
-125 32 -50 0 -86 -7 -128 -24z m192 -150 c17 -18 23 -35 23 -64 -2 -146 -216
-281 -292 -185 -57 72 25 222 147 268 48 18 91 11 122 -19z"/>
<path d="M3155 3046 c-111 -35 -195 -107 -246 -212 -55 -112 -44 -235 27 -308
47 -48 86 -67 153 -73 106 -10 235 52 311 148 104 131 108 302 9 396 -61 58
-163 78 -254 49z m150 -158 c25 -19 27 -26 23 -77 -7 -103 -99 -197 -203 -209
-39 -4 -48 -1 -75 26 -46 46 -36 118 26 190 70 82 174 114 229 70z"/>
<path d="M1735 2979 c-87 -18 -194 -76 -261 -143 -106 -107 -159 -240 -152
-385 7 -153 74 -242 294 -391 142 -95 277 -231 380 -380 168 -245 306 -329
490 -300 259 42 461 290 441 542 -7 81 -31 140 -91 216 -50 64 -65 113 -66
214 0 140 -43 248 -134 339 -96 96 -169 126 -346 138 -126 9 -149 17 -225 80
-27 22 -69 48 -95 56 -57 21 -170 27 -235 14z m176 -153 c20 -7 59 -32 87 -55
71 -60 135 -81 279 -91 142 -11 175 -22 242 -85 75 -70 92 -114 102 -259 9
-145 31 -212 94 -288 50 -62 70 -122 61 -191 -23 -168 -142 -295 -307 -328
-127 -25 -216 35 -352 237 -127 189 -220 281 -435 431 -185 129 -219 178 -210
303 7 87 43 166 105 228 92 92 235 134 334 98z"/>
<path d="M3320 2354 c-248 -67 -378 -375 -222 -527 49 -48 98 -67 171 -67 158
0 310 121 357 284 19 67 15 146 -9 193 -27 51 -89 103 -141 118 -60 18 -85 18
-156 -1z m141 -163 c37 -38 38 -79 3 -150 -58 -115 -209 -174 -264 -103 -72
91 62 276 203 281 19 1 38 -9 58 -28z"/>
</g>
</svg>
