<svg id="Capa_1" data-name="Capa 1" xmlns="http://www.w3.org/2000/svg" viewBox="0 0 509.83 444.24"><defs><style>.cls-1{fill:#040404;}</style></defs><path class="cls-1" d="M0,125.58C2.42,120,2.29,113.8,3.66,107.93,17.09,50.31,59.21,10.32,117.38,1.57,154.72-4,189,5.73,220.64,25.59a175.36,175.36,0,0,1,30.8,24.28c2.71,2.69,4.18,2.67,7,0C281.93,27.33,309,11.08,341.06,3.73c77.68-17.82,151.42,30.63,166,109.05,6.78,36.43.53,71.21-13.15,105-10.83,26.76-26,51-43.82,73.6-3.69,4.7-7.74,5.59-11.5,2.7s-3.88-7.24-.3-11.82c19.37-24.83,35.71-51.38,46-81.31,11.36-32.9,14.61-66.19,4.52-100.08C472.34,45.4,417.64,9.29,360.65,15.7c-38,4.27-68.85,22.14-95.59,48.39-.95.93-1.87,1.89-2.8,2.83-5.68,5.73-9,5.78-14.6.06-12.78-13.16-26.84-24.73-43-33.48C165,12,124.1,7.5,82.73,27.81c-37.3,18.31-58.52,49.43-65.65,89.92C10.3,156.3,19.73,192.35,36.29,227c1.56,3.28,2.58,1.69,4.06.18q14.49-14.73,29-29.41c1-1.06,2.05-2.18,3.17-3.16,3.48-3.07,7.74-3.1,10.68-.15s3.07,7.17-.19,10.69c-4.06,4.38-8.37,8.53-12.56,12.78C63,225.49,55.65,233.15,48,240.55c-2.34,2.27-2.5,3.85-.81,6.64C63.1,273.47,82.39,297,104,318.71c37.79,37.92,80.74,69.17,126.11,97.29,2.8,1.74,4,.52,5.73-1.17,22.54-21.8,45-43.68,67.73-65.29,18-17.15,36.79-33.55,53.74-51.82A196.82,196.82,0,0,0,371,282c6-8.07,9.13-17.25,7.67-27.51-1.89-13.35-11.56-22.33-25-23.41-.33,0-.66,0-1,0-3.64-.16-6.4-1.66-7.69-5.23s.14-6.39,2.88-8.78c7.58-6.63,12.85-14.69,14.66-24.73,4.18-23.07-13.64-39.37-36.32-33.27a30.8,30.8,0,0,0-3.78,1.21c-3.82,1.59-7.6,2.75-11-.76s-1.92-7.32-.46-11.1a33.06,33.06,0,0,0,2.34-15.59c-2-19.14-18.47-29.36-37.77-23.53a44.68,44.68,0,0,0-21.09,13.45c-2.46,2.81-5.33,4-8.86,2.88-3.68-1.13-5.1-4.08-5.17-7.67-.35-18.79-18-32.14-39.79-24.51A48.7,48.7,0,0,0,182,105.42q-37.53,37.8-75.1,75.56a27.62,27.62,0,0,1-3.64,3.38c-3.28,2.26-6.66,2.11-9.5-.67s-3.06-6.12-.92-9.5a13.86,13.86,0,0,1,2-2.23c27.12-27.09,53.84-54.61,81.56-81.07C191,77,209.16,73.46,228.64,79.57a34.77,34.77,0,0,1,22.24,20c1.78,4.13,3.07,3.47,6.16,1.59,12.36-7.55,25.69-10.68,40-6.94,20.34,5.32,33.2,24.23,31.22,45.52-.18,2-1.19,3.91,2.46,3.49,31.24-3.54,55.09,24,45.19,57.33a53.77,53.77,0,0,1-7.44,15.63c-1.13,1.62-1.54,2.56.84,3.57,22.9,9.68,31.34,37.43,19,62.69-3.63,7.41-8.92,13.51-14.78,19.21q-61.74,60-123.42,120.15c-4.24,4.14-4.08,4.59,1.63,6.82,3.09,1.2,5.82.54,8.52-1,56.2-32.83,109-70.13,154.07-117.54a41.49,41.49,0,0,1,4.91-4.92,6.89,6.89,0,0,1,9.15.27c3,2.58,3.68,5.91,1.61,9.38a27.56,27.56,0,0,1-3.87,4.52c-40.36,42.77-87,77.59-136.89,108.34q-10.79,6.64-21.74,13c-8.29,4.82-16.75,4.86-25,0-49.45-28.72-96.34-61-137.9-100.52-33.13-31.52-62.09-66.28-82.21-107.74A223,223,0,0,1,1.08,161.88C1,161,1.37,159.8,0,159.44Z"/><path class="cls-1" d="M183.78,178.43c8.08.21,16.68,2.53,23.6,9.37a22.43,22.43,0,0,0,16.19,6.45c5.81.07,11.64.16,17.33,1.41,19.47,4.3,34.15,22,34.93,41.94.19,4.8,0,9.61.81,14.39a18.16,18.16,0,0,0,4.45,9.81c12.82,13.39,12.87,28.75,6.71,44.83-8.24,21.52-31.41,35.46-52.83,32.11-10.17-1.59-17.87-7.47-24.71-14.71A118.5,118.5,0,0,1,197.42,307a120.46,120.46,0,0,0-35.31-35.22,177.78,177.78,0,0,1-14.51-10.45c-16.46-13.35-20.66-29.5-13.06-49.26A52.81,52.81,0,0,1,183.78,178.43Zm-.27,14.95a37.82,37.82,0,0,0-36,26.94c-3.46,11.56-1,21.31,8.73,28.74,5.39,4.11,10.93,8,16.54,11.85a133,133,0,0,1,36.49,36.84c3.66,5.52,7.12,11.18,11.54,16.15,4.25,4.78,9.06,8.7,15.59,10,16.78,3.24,35.77-10.62,39.46-28.72,1.8-8.8.86-16.71-5.9-23.39a28.33,28.33,0,0,1-6.62-11.52c-2.26-6.88-2.26-14-2.43-21.14a29.71,29.71,0,0,0-26-29.19c-4.09-.55-8.26-.49-12.39-.71-9.4-.51-18-3.28-24.75-10A20.4,20.4,0,0,0,183.51,193.38Z"/><path class="cls-1" d="M346.76,194.89c0,19-17.42,36.84-36.38,37.21-14.11.27-24.66-10.27-24.42-24.38.33-18.86,18.31-36.42,37.26-36.37C336.8,171.38,346.75,181.32,346.76,194.89Zm-14.91.46c.08-5.77-2.75-8.8-8.29-8.86-10.5-.1-21.46,9.67-22.64,20.19-.72,6.5,3.43,10.91,10,10.56C321.1,216.7,331.7,205.63,331.85,195.35Z"/><path class="cls-1" d="M325.57,301.06c-13.82.18-23.83-9.72-23.91-23.65-.1-19.25,18.29-37.46,37.5-37.1,13.91.25,24,11.39,23.25,25.52C361.36,284.31,344.09,300.83,325.57,301.06Zm-9-24.45c-.17,6.7,4.08,10.5,10.72,9.59,9.24-1.25,18.78-10.49,20.2-19.55,1-6.52-2.89-11.53-9-11.56C328.42,255.05,316.8,266.44,316.56,276.61Z"/><path class="cls-1" d="M297,144.72c0,19.18-17.71,37.08-36.9,37.19a23.41,23.41,0,0,1-23.58-27.78c3.11-18.31,18.25-32.15,35.94-32.85C286.49,120.73,296.94,130.71,297,144.72Zm-14.7.31a9,9,0,0,0-10.48-9.13c-9.51,1.21-19.26,10.68-20.73,20.13-.94,6.09,3,11.06,8.9,11.19C270.07,167.45,282.39,155.19,282.27,145Z"/><path class="cls-1" d="M194.42,168.67c-15.1.29-25.74-11.62-24-26.9,2-17.78,18.33-33,36.26-33.8,14.89-.66,26,11.8,24.26,27.31C229,153,212.2,168.33,194.42,168.67Zm21.72-36.36c.09-5.72-3.56-9.61-9-9.63-10.12,0-22,11.9-22,22,0,5.59,3.86,9.45,9.34,9.35C204.62,153.88,216,142.48,216.14,132.31Z"/></svg>